<svg width="139" height="151" viewBox="0 0 139 151" fill="none" xmlns="http://www.w3.org/2000/svg">
<g clip-path="url(#clip0_47_3)">
<path d="M31.6562 32.375L44.9688 31.9688C45.8229 31.9688 46.3542 32.1354 46.5625 32.4688C46.7708 32.8021 46.875 33.4792 46.875 34.5C46.875 35.5 46.7396 36.1042 46.4688 36.3125C46.1979 36.5 45.5312 36.5938 44.4688 36.5938H37.9375C37.5 36.5938 37.2812 47.9375 37.2812 70.625V101.375C37.2812 110.208 36.3333 117.469 34.4375 123.156C32.6667 128.51 29.9062 133.188 26.1562 137.188C23.0729 140.479 20.8021 142.521 19.3438 143.312C16.6562 144.792 14.3229 145.531 12.3438 145.531C10.3854 145.531 8.63542 145.219 7.09375 144.594C5.55208 143.969 4.78125 143.104 4.78125 142C4.78125 140.917 5.19792 139.812 6.03125 138.688C6.86458 137.562 7.8125 136.646 8.875 135.938C11.2917 134.312 12.8958 133.5 13.6875 133.5C14.4792 133.5 15.5938 133.948 17.0312 134.844C18.4688 135.74 19.5625 136.188 20.3125 136.188C21.0833 136.188 21.7292 136.021 22.25 135.688C22.7708 135.375 23.1979 134.844 23.5312 134.094C23.8854 133.344 24.1667 132.531 24.375 131.656C24.6042 130.781 24.7708 129.604 24.875 128.125C25.0417 125.792 25.125 122.625 25.125 118.625V55.0312C25.125 42.7396 24.7396 36.5938 23.9688 36.5938H15.5312C14.6146 36.5938 13.9583 36.4583 13.5625 36.1875C13.1667 35.9167 12.9688 35.2812 12.9688 34.2812C12.9688 33.2812 13.1562 32.6458 13.5312 32.375C13.9062 32.1042 14.5729 31.9688 15.5312 31.9688L31.6562 32.375Z" fill="white"/>
<path d="M73.25 118.375L58.2812 118.781C57.4271 118.781 56.8958 118.615 56.6875 118.281C56.4792 117.969 56.375 117.312 56.375 116.312C56.375 115.312 56.5417 114.708 56.875 114.5C57.2292 114.271 57.9583 114.156 59.0625 114.156H65.8438C66.4271 114.156 66.7188 107.031 66.7188 92.7812V55.6562C66.7188 43.3646 66.4688 37.2188 65.9688 37.2188H60.0625C58.7083 37.2188 57.9375 36.9688 57.75 36.4688C57.5833 35.9688 57.5 35.3438 57.5 34.5938C57.5 33.8229 57.6875 33.3021 58.0625 33.0312C58.4375 32.7604 59.1042 32.625 60.0625 32.625L73.5 33L87.3438 32.625C88.1979 32.625 88.7292 32.7917 88.9375 33.125C89.1458 33.4375 89.25 34.1042 89.25 35.125C89.25 36.125 89.1042 36.7292 88.8125 36.9375C88.5417 37.125 87.875 37.2188 86.8125 37.2188H79.7812C79.3646 37.2188 79 39.5417 78.6875 44.1875C78.3958 48.8333 78.25 53.125 78.25 57.0625V73.0625C78.25 74.0208 78.3125 74.625 78.4375 74.875C78.5625 75.125 78.9271 75.25 79.5312 75.25H82.3438C83.7396 75.25 90.6042 67.0208 102.938 50.5625C108.125 43.625 110.969 39.8333 111.469 39.1875C112.49 37.875 112.292 37.2188 110.875 37.2188H105.781C104.427 37.2188 103.656 36.9688 103.469 36.4688C103.302 35.9688 103.219 35.3438 103.219 34.5938C103.219 33.8229 103.406 33.3021 103.781 33.0312C104.156 32.7604 104.823 32.625 105.781 32.625L117.031 33L127.656 32.625C128.51 32.625 129.021 32.7812 129.188 33.0938C129.354 33.4062 129.438 34.0729 129.438 35.0938C129.438 36.1146 129.312 36.7292 129.062 36.9375C128.833 37.125 128.198 37.2188 127.156 37.2188H121C120.646 37.2188 116.031 42.5521 107.156 53.2188C98.3021 63.8646 93.6146 69.4792 93.0938 70.0625C92.5938 70.6458 92.3438 70.9896 92.3438 71.0938C92.3438 71.1771 92.4896 71.375 92.7812 71.6875C93.0729 71.9792 93.3021 72.2292 93.4688 72.4375L127.906 112.125C129.135 113.479 130.375 114.156 131.625 114.156H133.688C134.396 114.156 134.823 114.292 134.969 114.562C135.135 114.812 135.219 115.271 135.219 115.938C135.219 116.604 135.208 117.042 135.188 117.25C135.188 117.438 135.167 117.667 135.125 117.938C135.083 118.188 135 118.354 134.875 118.438C134.625 118.667 134.229 118.781 133.688 118.781L120.625 118.375L107.438 118.781C106.583 118.781 106.073 118.625 105.906 118.312C105.74 118.021 105.656 117.375 105.656 116.375C105.656 115.354 105.812 114.729 106.125 114.5C106.438 114.271 107.042 114.156 107.938 114.156H112.156C113.198 114.156 113.594 113.938 113.344 113.5C113.156 113.208 112.896 112.875 112.562 112.5L84.7812 79.5938C84.4479 79.1771 84.1667 78.9271 83.9375 78.8438C83.7083 78.7604 83.1354 78.7188 82.2188 78.7188H79.7812C79.0104 78.7188 78.5625 78.7812 78.4375 78.9062C78.3125 79.0104 78.25 79.4167 78.25 80.125C78.25 102.812 78.6354 114.156 79.4062 114.156H88.625C89.3542 114.156 89.8333 114.302 90.0625 114.594C90.2917 114.885 90.4062 115.49 90.4062 116.406C90.4062 117.302 90.3125 117.917 90.125 118.25C89.9375 118.604 89.4792 118.781 88.75 118.781L73.25 118.375Z" fill="#F86402"/>
</g>
<defs>
<clipPath id="clip0_47_3">
<rect width="139" height="151" fill="white"/>
</clipPath>
</defs>
</svg>
